<svg width="940" height="160" viewBox="0 0 940 160" fill="none" xmlns="http://www.w3.org/2000/svg">
<rect width="940" height="160" fill="white"/>
<g clip-path="url(#clip0_4_3)">
<path d="M24.6612 37.6366V19.6661H79.2073V39.3027L41.3027 121.856H79.2469V139.826H20V120.19L58.4798 37.6366H24.6612Z" fill="black"/>
<path d="M102.94 139.826H82.966L105.092 19.6661H130.719L152.854 139.826H132.861L129.201 113.198H106.599L102.94 139.826ZM109.594 95.1976H126.236L118.084 43.6267H117.747L109.594 95.1976Z" fill="black"/>
<path d="M158.924 19.6661H189.539C210.852 19.6661 222.168 31.3092 222.168 55.9442V103.548C222.168 128.183 210.852 139.826 189.539 139.826H158.924V19.6661ZM179.562 122.808H186.713C197.701 122.808 201.529 118.652 201.529 106.008V53.445C201.529 40.8003 197.701 36.6448 186.713 36.6448H179.562V122.808Z" fill="black"/>
<path d="M233.027 139.826V19.6661H253.665V139.826H233.027Z" fill="black"/>
<path d="M293.811 78.9131H327.59V139.826H317.603L313.775 130.841C307.616 138.17 302.628 141.492 292.948 141.492C276.634 141.492 265.318 129.839 265.318 110.699V48.7937C265.318 31.815 275.305 18 295.606 18C316.245 18 326.569 32.9853 326.569 50.9557V58.612H306.952C306.952 40.6317 303.292 35.9804 295.14 35.9804C290.181 35.9804 285.986 38.9556 285.986 49.121V110.847C285.986 118.504 288.486 123.492 295.636 123.492C303.957 123.492 306.952 118.831 306.952 106.851V95.2273H293.811V78.9131Z" fill="black"/>
<path d="M490.237 19.6661H510.548L485.417 139.826H464.778L439.648 19.6661H459.949L474.934 103.042H475.261L490.237 19.6661Z" fill="black"/>
<path d="M512.957 48.7937C512.957 31.815 522.934 18 544.574 18C566.214 18 576.171 31.815 576.171 48.7937V110.699C576.171 127.707 566.254 141.492 544.574 141.492C522.895 141.492 512.957 127.707 512.957 110.699V48.7937ZM533.586 110.203C533.586 119.188 536.254 123.512 544.574 123.512C552.895 123.512 555.553 119.188 555.553 110.203V49.2896C555.553 40.3044 552.895 35.9804 544.574 35.9804C536.254 35.9804 533.586 40.3044 533.586 49.2896V110.203Z" fill="black"/>
<path d="M585.494 139.826V19.6661H606.122V121.816H638.582V139.786L585.494 139.826Z" fill="black"/>
<path d="M645.594 37.6366H625.6V19.6661H686.176V37.6366H666.202V139.786H645.594V37.6366Z" fill="black"/>
<path d="M697.422 139.826H677.449L699.584 19.6661H725.211L747.347 139.826H727.373L723.714 113.198H701.131L697.422 139.826ZM704.077 95.1976H720.718L712.566 43.6267H712.229L704.077 95.1976Z" fill="black"/>
<path d="M755.35 139.826V19.6661H775.988V139.826H755.35Z" fill="black"/>
<path d="M809.331 139.826H788.693V19.6661H817.652C840.789 19.6661 852.601 29.4844 852.601 55.1211C852.601 74.4205 845.113 82.2453 838.121 85.3991L855.596 139.826H834.63L819.982 90.0206C816.443 90.378 812.888 90.5435 809.331 90.5165V139.826ZM809.331 73.5874H816.65C827.807 73.5874 831.963 69.432 831.963 55.1211C831.963 40.8102 827.807 36.6448 816.65 36.6448H809.331V73.5874Z" fill="black"/>
<path d="M862.419 139.826V19.6661H917.669V37.6366H883.057V68.589H909.686V86.5694H883.057V121.856H920V139.826H862.419Z" fill="black"/>
<path d="M436.424 78.9428L419.475 110.937L437.535 129.373L425.238 141.423L409.667 125.426C405.492 133.251 397.528 141.492 381.194 141.492C360.11 141.492 347.018 128.163 347.018 112.375C347.018 96.586 359.564 88.4834 367.845 83.6635C360.903 76.3841 357.243 69.4815 357.144 61.4087C357.144 47.5243 368.728 36.4663 383.485 36.4663C398.242 36.4663 408.983 47.435 408.983 60.6253C408.983 74.0634 398.996 80.3808 392.738 84.0701L407.485 99.0554L417.403 78.9428H436.424ZM378.814 94.6223C371.039 98.8967 366.556 104.074 366.526 110.669C366.526 118.603 372.992 124.246 381.64 124.246C390.288 124.246 394.364 119.773 397.657 113.743L378.814 94.6223ZM383.455 51.2136C382.264 51.2261 381.088 51.4768 379.995 51.9509C378.903 52.4251 377.916 53.1131 377.094 53.9745C376.271 54.8359 375.629 55.8531 375.206 56.9664C374.783 58.0797 374.586 59.2664 374.629 60.4567C374.629 66.4071 379.141 70.7807 382.394 74.2023C388.345 70.2948 392.559 66.9526 392.559 60.4864C392.559 55.5277 389.168 51.2136 383.634 51.2136H383.455Z" fill="black"/>
</g>
<defs>
<clipPath id="clip0_4_3">
<rect width="900" height="123.492" fill="white" transform="translate(20 18)"/>
</clipPath>
</defs>
</svg>
